<svg viewBox="0 0 33 24" width="347" height="347" xmlns="http://www.w3.org/2000/svg">
    <defs>
        <path id="a" d="M14.963.13v15.31H.01V.13h14.953z"></path>
        <path id="c" d="M.026.141h12.5v4.465H.026V.14z"></path>
    </defs>
    <g fill="none" fill-rule="evenodd">
        <g transform="translate(17.919 8.42)">
            <path
                    d="M7.487 3.659c-2.223 0-4.03 1.85-4.03 4.126 0 2.275 1.807 4.126 4.03 4.126 2.222 0 4.03-1.85 4.03-4.126 0-2.275-1.808-4.126-4.03-4.126m0 11.78C3.364 15.44.01 12.006.01 7.785.01 3.565 3.364.131 7.487.131c4.122 0 7.476 3.433 7.476 7.654 0 4.22-3.354 7.654-7.476 7.654"
                    fill="#fff"></path>
        </g>
        <path
                d="M7.477 12.078c-2.222 0-4.03 1.85-4.03 4.126 0 2.275 1.808 4.126 4.03 4.126 2.223 0 4.03-1.85 4.03-4.126 0-2.275-1.807-4.126-4.03-4.126m0 11.78C3.354 23.859 0 20.426 0 16.205c0-4.22 3.354-7.655 7.477-7.655s7.477 3.434 7.477 7.655c0 4.22-3.354 7.655-7.477 7.655M13.033 6.534H7.006c-.956 0-1.73-.793-1.73-1.771 0-.978.774-1.771 1.73-1.771h6.027c.956 0 1.73.793 1.73 1.77 0 .979-.774 1.772-1.73 1.772"
                fill="#fff"></path>
        <g transform="translate(17.321 .011)">
            <path
                    d="M6.261 4.606a13.07 13.07 0 0 1-5.177-1.06C.206 3.17-.207 2.136.16 1.237A1.71 1.71 0 0 1 2.415.291a9.71 9.71 0 0 0 3.846.787A9.713 9.713 0 0 0 10.133.28a1.709 1.709 0 0 1 2.257.94c.37.898-.041 1.933-.918 2.312a13.072 13.072 0 0 1-5.21 1.074"
                    fill="#fff" ></path>
        </g>
    </g>
</svg>